<?xml version="1.0" encoding="utf-8"?>
<!-- Generator: Adobe Illustrator 26.0.3, SVG Export Plug-In . SVG Version: 6.00 Build 0)  -->
<svg version="1.1" id="Capa_1" xmlns="http://www.w3.org/2000/svg" xmlns:xlink="http://www.w3.org/1999/xlink" x="0px" y="0px"
	 viewBox="0 0 500 191.7" style="enable-background:new 0 0 500 191.7;" xml:space="preserve">
<style type="text/css">
	.st0{fill-rule:evenodd;clip-rule:evenodd;fill:#8C52FF;fill-opacity:0.549;}
	.st1{clip-path:url(#SVGID_00000049210694663327609500000006854619680234176642_);}
	.st2{clip-path:url(#SVGID_00000181086757341615980220000006351474602933340859_);}
	.st3{fill:#8C52FF;}
	.st4{fill:#CB6CE6;}
	.st5{fill-rule:evenodd;clip-rule:evenodd;fill:#8C52FF;fill-opacity:0.749;}
	.st6{fill-rule:evenodd;clip-rule:evenodd;fill:#CB6CE6;fill-opacity:0.749;}
	.st7{clip-path:url(#SVGID_00000033341443665876393310000000392123333108221873_);}
	.st8{clip-path:url(#SVGID_00000039855629510602911880000017147331498878439073_);}
	.st9{fill-rule:evenodd;clip-rule:evenodd;fill:#8C52FF;}
</style>
<g>
	<path class="st0" d="M353.4,21.4c25.6,0,48.2,13.4,60.9,33.5c20.6,31.7,15.3,70.9-11.1,98.6c-7.9,8.3-17.7,15.6-29.2,21.4
		c15.6-10.2,27.4-22.6,35.4-37.3c-13.2,16.3-33.3,26.6-56,26.6c-39.7,0-71.9-32-71.9-71.4C281.5,53.4,313.7,21.4,353.4,21.4z"/>
	<path class="st0" d="M353.4,30.5c11.9,0,23.1,3.1,32.9,8.5c-19.5-13.7-47.5-16.6-83.9-8.7c64.4-21,107.7,4.8,116.9,53.4
		c0.5,2.6,0.9,5.2,1.2,7.9v0.2c0.2,1.9,0.3,3.8,0.3,5.7c0,36.9-30.1,66.9-67.3,66.9c-37.2,0-67.3-29.9-67.3-66.9
		C286.1,60.4,316.2,30.5,353.4,30.5z"/>
	<g>
		<defs>
			<rect id="SVGID_1_" x="288.6" y="30.5" width="130.4" height="127.8"/>
		</defs>
		<clipPath id="SVGID_00000007400648282011828910000012837199165837493915_">
			<use xlink:href="#SVGID_1_"  style="overflow:visible;"/>
		</clipPath>
		<g style="clip-path:url(#SVGID_00000007400648282011828910000012837199165837493915_);">
			<g>
				<defs>
					<path id="SVGID_00000014606611142586391550000009212923910538449305_" d="M417.2,94.7c0,2.1-0.1,4.1-0.3,6.2
						c-0.2,2.1-0.5,4.1-0.9,6.2c-0.4,2-0.9,4-1.5,6c-0.6,2-1.3,3.9-2.1,5.9c-0.8,1.9-1.7,3.8-2.7,5.6c-1,1.8-2.1,3.6-3.2,5.3
						c-1.2,1.7-2.4,3.4-3.7,5c-1.3,1.6-2.7,3.1-4.2,4.6s-3,2.9-4.6,4.2c-1.6,1.3-3.3,2.5-5,3.7c-1.7,1.2-3.5,2.2-5.4,3.2
						c-1.8,1-3.7,1.9-5.7,2.7c-1.9,0.8-3.9,1.5-5.9,2.1c-2,0.6-4,1.1-6.1,1.5c-2,0.4-4.1,0.7-6.2,0.9c-2.1,0.2-4.2,0.3-6.2,0.3
						c-2.1,0-4.2-0.1-6.3-0.3c-2.1-0.2-4.1-0.5-6.2-0.9c-2-0.4-4.1-0.9-6.1-1.5c-2-0.6-4-1.3-5.9-2.1c-1.9-0.8-3.8-1.7-5.7-2.7
						c-1.9-1-3.6-2-5.4-3.2c-1.7-1.2-3.4-2.4-5-3.7c-1.6-1.3-3.2-2.7-4.6-4.2s-2.9-3-4.2-4.6c-1.3-1.6-2.6-3.3-3.7-5
						c-1.2-1.7-2.2-3.5-3.2-5.3c-1-1.8-1.9-3.7-2.7-5.6c-0.8-1.9-1.5-3.9-2.1-5.9c-0.6-2-1.1-4-1.5-6c-0.4-2-0.7-4.1-0.9-6.2
						c-0.2-2.1-0.3-4.1-0.3-6.2c0-2.1,0.1-4.1,0.3-6.2c0.2-2.1,0.5-4.1,0.9-6.2c0.4-2,0.9-4,1.5-6c0.6-2,1.3-3.9,2.1-5.9
						c0.8-1.9,1.7-3.8,2.7-5.6c1-1.8,2.1-3.6,3.2-5.3c1.2-1.7,2.4-3.4,3.7-5c1.3-1.6,2.7-3.1,4.2-4.6s3-2.9,4.6-4.2
						c1.6-1.3,3.3-2.5,5-3.7c1.7-1.2,3.5-2.2,5.4-3.2c1.8-1,3.7-1.9,5.7-2.7c1.9-0.8,3.9-1.5,5.9-2.1c2-0.6,4-1.1,6.1-1.5
						s4.1-0.7,6.2-0.9c2.1-0.2,4.2-0.3,6.3-0.3c2.1,0,4.2,0.1,6.2,0.3c2.1,0.2,4.1,0.5,6.2,0.9s4.1,0.9,6.1,1.5c2,0.6,4,1.3,5.9,2.1
						c1.9,0.8,3.8,1.7,5.7,2.7c1.9,1,3.6,2,5.4,3.2c1.7,1.2,3.4,2.4,5,3.7c1.6,1.3,3.2,2.7,4.6,4.2s2.9,3,4.2,4.6
						c1.3,1.6,2.6,3.3,3.7,5c1.2,1.7,2.2,3.5,3.2,5.3c1,1.8,1.9,3.7,2.7,5.6c0.8,1.9,1.5,3.9,2.1,5.9c0.6,2,1.1,4,1.5,6
						c0.4,2,0.7,4.1,0.9,6.2C417.1,90.5,417.2,92.6,417.2,94.7z"/>
				</defs>
				<clipPath id="SVGID_00000070102306992628439540000001289830698336867991_">
					<use xlink:href="#SVGID_00000014606611142586391550000009212923910538449305_"  style="overflow:visible;"/>
				</clipPath>
				<g style="clip-path:url(#SVGID_00000070102306992628439540000001289830698336867991_);">
					<path class="st3" d="M289.6,158.1V31.3h127.6v126.8H289.6z"/>
				</g>
			</g>
		</g>
	</g>
	<path class="st4" d="M414.2,100.1c0,1.9-0.1,3.9-0.3,5.8c-0.2,1.9-0.5,3.8-0.9,5.7c-0.4,1.9-0.9,3.8-1.4,5.6
		c-0.6,1.9-1.2,3.7-2,5.4c-0.7,1.8-1.6,3.5-2.5,5.2c-0.9,1.7-1.9,3.4-3,5c-1.1,1.6-2.2,3.2-3.5,4.6c-1.2,1.5-2.5,2.9-3.9,4.3
		c-1.4,1.4-2.8,2.7-4.3,3.9c-1.5,1.2-3.1,2.4-4.7,3.4c-1.6,1.1-3.3,2.1-5,3c-1.7,0.9-3.5,1.7-5.3,2.5c-1.8,0.7-3.6,1.4-5.5,2
		s-3.7,1-5.6,1.4c-1.9,0.4-3.8,0.7-5.8,0.8c-1.9,0.2-3.9,0.3-5.8,0.3s-3.9-0.1-5.8-0.3c-1.9-0.2-3.9-0.5-5.8-0.8
		c-1.9-0.4-3.8-0.8-5.6-1.4s-3.7-1.2-5.5-2c-1.8-0.7-3.5-1.6-5.3-2.5c-1.7-0.9-3.4-1.9-5-3c-1.6-1.1-3.2-2.2-4.7-3.4
		c-1.5-1.2-2.9-2.5-4.3-3.9c-1.4-1.4-2.7-2.8-3.9-4.3c-1.2-1.5-2.4-3-3.5-4.6c-1.1-1.6-2.1-3.3-3-5c-0.9-1.7-1.7-3.4-2.5-5.2
		c-0.7-1.8-1.4-3.6-2-5.4c-0.6-1.8-1-3.7-1.4-5.6c-0.4-1.9-0.7-3.8-0.9-5.7c-0.2-1.9-0.3-3.8-0.3-5.8c0-1.9,0.1-3.9,0.3-5.8
		c0.2-1.9,0.5-3.8,0.9-5.7c0.4-1.9,0.9-3.8,1.4-5.6c0.6-1.8,1.2-3.7,2-5.4c0.7-1.8,1.6-3.5,2.5-5.2c0.9-1.7,1.9-3.3,3-5
		c1.1-1.6,2.2-3.2,3.5-4.6c1.2-1.5,2.5-2.9,3.9-4.3c1.4-1.4,2.8-2.7,4.3-3.9c1.5-1.2,3.1-2.4,4.7-3.4c1.6-1.1,3.3-2.1,5-3
		c1.7-0.9,3.5-1.7,5.3-2.5c1.8-0.7,3.6-1.4,5.5-2s3.7-1,5.6-1.4c1.9-0.4,3.8-0.7,5.8-0.9c1.9-0.2,3.9-0.3,5.8-0.3s3.9,0.1,5.8,0.3
		c1.9,0.2,3.8,0.5,5.8,0.9c1.9,0.4,3.8,0.8,5.6,1.4s3.7,1.2,5.5,2c1.8,0.7,3.5,1.6,5.3,2.5c1.7,0.9,3.4,1.9,5,3
		c1.6,1.1,3.2,2.2,4.7,3.4c1.5,1.2,2.9,2.5,4.3,3.9c1.4,1.4,2.7,2.8,3.9,4.3c1.2,1.5,2.4,3,3.5,4.6c1.1,1.6,2.1,3.3,3,5
		c0.9,1.7,1.7,3.5,2.5,5.2c0.7,1.8,1.4,3.6,2,5.4c0.6,1.9,1,3.7,1.4,5.6c0.4,1.9,0.7,3.8,0.9,5.7C414.1,96.2,414.2,98.1,414.2,100.1
		z"/>
	<path class="st3" d="M408.9,97.6c0,1.9-0.1,3.7-0.3,5.6c-0.2,1.9-0.5,3.7-0.8,5.6c-0.4,1.8-0.8,3.7-1.4,5.5
		c-0.6,1.8-1.2,3.6-1.9,5.3c-0.7,1.7-1.5,3.4-2.4,5.1c-0.9,1.7-1.9,3.3-2.9,4.8c-1.1,1.6-2.2,3.1-3.4,4.5c-1.2,1.4-2.5,2.8-3.8,4.2
		c-1.3,1.3-2.7,2.6-4.2,3.8c-1.5,1.2-3,2.3-4.6,3.3c-1.6,1-3.2,2-4.9,2.9c-1.7,0.9-3.4,1.7-5.1,2.4c-1.7,0.7-3.5,1.4-5.3,1.9
		c-1.8,0.5-3.6,1-5.5,1.4c-1.9,0.4-3.7,0.6-5.6,0.8c-1.9,0.2-3.8,0.3-5.7,0.3s-3.8-0.1-5.7-0.3c-1.9-0.2-3.8-0.5-5.6-0.8
		s-3.7-0.8-5.5-1.4c-1.8-0.6-3.6-1.2-5.3-1.9c-1.7-0.7-3.5-1.5-5.1-2.4c-1.7-0.9-3.3-1.9-4.9-2.9c-1.6-1-3.1-2.2-4.6-3.3
		c-1.5-1.2-2.9-2.5-4.2-3.8c-1.3-1.3-2.6-2.7-3.8-4.2c-1.2-1.5-2.3-3-3.4-4.5c-1.1-1.6-2-3.2-2.9-4.8c-0.9-1.7-1.7-3.3-2.4-5.1
		c-0.7-1.7-1.4-3.5-1.9-5.3c-0.6-1.8-1-3.6-1.4-5.5c-0.4-1.8-0.6-3.7-0.8-5.6c-0.2-1.9-0.3-3.7-0.3-5.6c0-1.9,0.1-3.8,0.3-5.6
		c0.2-1.9,0.5-3.7,0.8-5.6c0.4-1.8,0.8-3.7,1.4-5.5c0.6-1.8,1.2-3.6,1.9-5.3c0.7-1.7,1.5-3.4,2.4-5.1c0.9-1.7,1.9-3.3,2.9-4.8
		c1.1-1.6,2.2-3.1,3.4-4.5c1.2-1.5,2.5-2.8,3.8-4.2c1.3-1.3,2.7-2.6,4.2-3.8c1.5-1.2,3-2.3,4.6-3.3c1.6-1,3.2-2,4.9-2.9
		c1.7-0.9,3.4-1.7,5.1-2.4c1.7-0.7,3.5-1.4,5.3-1.9c1.8-0.6,3.6-1,5.5-1.4s3.7-0.6,5.6-0.8c1.9-0.2,3.8-0.3,5.7-0.3s3.8,0.1,5.7,0.3
		c1.9,0.2,3.7,0.5,5.6,0.8c1.9,0.4,3.7,0.8,5.5,1.4c1.8,0.5,3.6,1.2,5.3,1.9c1.7,0.7,3.5,1.5,5.1,2.4s3.3,1.9,4.9,2.9
		c1.6,1,3.1,2.2,4.6,3.3c1.5,1.2,2.9,2.5,4.2,3.8c1.3,1.3,2.6,2.7,3.8,4.2c1.2,1.4,2.3,3,3.4,4.5c1.1,1.6,2,3.2,2.9,4.8
		c0.9,1.7,1.7,3.3,2.4,5.1c0.7,1.7,1.4,3.5,1.9,5.3c0.5,1.8,1,3.6,1.4,5.5c0.4,1.8,0.6,3.7,0.8,5.6
		C408.8,93.9,408.9,95.8,408.9,97.6z"/>
	<path class="st5" d="M352.3,50.6c28.2,0,51,22.7,51,50.7s-22.8,50.7-51,50.7c-28.2,0-51-22.7-51-50.7S324.2,50.6,352.3,50.6z"/>
	<path class="st6" d="M350.4,42.5c28.2,0,51,22.7,51,50.7s-22.8,50.7-51,50.7c-28.2,0-51-22.7-51-50.7S322.3,42.5,350.4,42.5z"/>
	<g>
		<defs>
			<rect id="SVGID_00000093149368420771082010000003474774542871188365_" x="312.6" y="54.5" width="90.5" height="90.5"/>
		</defs>
		<clipPath id="SVGID_00000073709034134180036350000011876336336086273680_">
			<use xlink:href="#SVGID_00000093149368420771082010000003474774542871188365_"  style="overflow:visible;"/>
		</clipPath>
		<g style="clip-path:url(#SVGID_00000073709034134180036350000011876336336086273680_);">
			<g>
				<defs>
					<path id="SVGID_00000050638659932817582890000006357656080689792946_" d="M357,56.7c24.3,0,44,19.6,44,43.7
						c0,24.1-19.7,43.7-44,43.7c-24.3,0-44-19.6-44-43.7C313,76.3,332.7,56.7,357,56.7z"/>
				</defs>
				<clipPath id="SVGID_00000174600632542804051610000009098731010065938845_">
					<use xlink:href="#SVGID_00000050638659932817582890000006357656080689792946_"  style="overflow:visible;"/>
				</clipPath>
				<g style="clip-path:url(#SVGID_00000174600632542804051610000009098731010065938845_);">
					<g transform="matrix(1, 0, 0, 1, 175.999985, 156.039976)">
						
							<image style="overflow:visible;enable-background:new    ;" width="66" height="68" xlink:href="FFC6C98A.png"  transform="matrix(2.6616 0 0 2.6616 83.3485 -149.3639)">
						</image>
					</g>
				</g>
			</g>
		</g>
	</g>
	<path class="st3" d="M390.1,94.3c0,2.4-0.2,4.7-0.7,7c-0.5,2.3-1.2,4.6-2.1,6.8c-0.9,2.2-2,4.3-3.4,6.2c-1.3,2-2.8,3.8-4.5,5.5
		c-1.7,1.7-3.5,3.2-5.5,4.5c-2,1.3-4.1,2.4-6.3,3.3c-2.2,0.9-4.5,1.6-6.8,2.1c-2.3,0.5-4.7,0.7-7.1,0.7c-2.4,0-4.8-0.2-7.1-0.7
		c-2.3-0.5-4.6-1.2-6.8-2.1c-2.2-0.9-4.3-2-6.3-3.3c-2-1.3-3.8-2.8-5.5-4.5c-1.7-1.7-3.2-3.5-4.5-5.5c-1.3-2-2.4-4.1-3.4-6.2
		c-0.9-2.2-1.6-4.4-2.1-6.8c-0.5-2.3-0.7-4.7-0.7-7s0.2-4.7,0.7-7c0.5-2.3,1.2-4.6,2.1-6.8c0.9-2.2,2-4.3,3.4-6.2
		c1.3-2,2.8-3.8,4.5-5.5c1.7-1.7,3.5-3.2,5.5-4.5c2-1.3,4.1-2.4,6.3-3.3c2.2-0.9,4.5-1.6,6.8-2.1c2.3-0.5,4.7-0.7,7.1-0.7
		c2.4,0,4.7,0.2,7.1,0.7c2.3,0.5,4.6,1.2,6.8,2.1c2.2,0.9,4.3,2,6.3,3.3c2,1.3,3.8,2.8,5.5,4.5c1.7,1.7,3.2,3.5,4.5,5.5
		c1.3,2,2.4,4.1,3.4,6.2c0.9,2.2,1.6,4.4,2.1,6.8C389.8,89.5,390.1,91.9,390.1,94.3z"/>
	<path class="st9" d="M430.2,107.1c1.9-17.9-0.1-34.2-6.9-48.3c-6.6-13.7-17.7-25.1-32.4-35.1c13.3,10.1,23.8,22.1,30.4,35.9
		C428.1,73.8,430.8,89.9,430.2,107.1z"/>
	<path class="st9" d="M275.3,104.8c5,16.6,11.7,30.6,22.4,41.3c14.5,14.4,34.9,23,54.8,26.7c-26.1-0.5-46-10.3-59.1-24.1
		C282.9,137.8,275.6,121.1,275.3,104.8z"/>
	<path class="st0" d="M336.5,17.6c-49.7-0.1-75,28.5-72.5,79.2C267.1,49.9,292.5,21.3,336.5,17.6z"/>
	<path class="st0" d="M415.5,153.6c-14.3,16.4-29.5,26.4-45.7,29.8c-16.5,3.5-34,0.3-52.6-9.8c19.4,8.1,37.7,10.2,54.7,6.2
		C387.5,176.1,402,167.3,415.5,153.6z"/>
	<path d="M387.4,94.3c0,2.2-0.2,4.4-0.7,6.5c-0.4,2.2-1.1,4.2-1.9,6.3c-0.8,2-1.9,4-3.1,5.8c-1.2,1.8-2.6,3.5-4.2,5.1
		c-1.6,1.5-3.3,2.9-5.1,4.1c-1.8,1.2-3.8,2.3-5.8,3.1c-2,0.8-4.1,1.5-6.3,1.9c-2.2,0.4-4.4,0.6-6.6,0.6c-2.2,0-4.4-0.2-6.6-0.6
		c-2.2-0.4-4.3-1.1-6.3-1.9c-2-0.8-4-1.9-5.8-3.1c-1.8-1.2-3.5-2.6-5.1-4.1c-1.6-1.6-3-3.2-4.2-5.1c-1.2-1.8-2.3-3.7-3.1-5.8
		c-0.8-2-1.5-4.1-1.9-6.3c-0.4-2.2-0.6-4.3-0.6-6.5c0-2.2,0.2-4.4,0.6-6.5c0.4-2.2,1.1-4.2,1.9-6.3c0.8-2,1.9-4,3.1-5.8
		c1.2-1.8,2.6-3.5,4.2-5.1c1.6-1.6,3.3-2.9,5.1-4.2c1.8-1.2,3.8-2.3,5.8-3.1c2-0.8,4.1-1.5,6.3-1.9c2.2-0.4,4.4-0.6,6.6-0.6
		c2.2,0,4.4,0.2,6.6,0.6c2.2,0.4,4.3,1.1,6.3,1.9c2,0.8,4,1.9,5.8,3.1c1.8,1.2,3.5,2.6,5.1,4.2c1.6,1.5,3,3.2,4.2,5.1
		c1.2,1.8,2.3,3.8,3.1,5.8c0.9,2,1.5,4.1,1.9,6.3C387.2,89.9,387.4,92.1,387.4,94.3z"/>
	<g>
		<g transform="translate(88.633541, 196.481032)">
			<g>
				<path d="M-19.3-82.2h5.3v-44.3h-5.3v20.2h-32.3v-20.2h-5.2v44.3h5.2v-20.2h32.3V-82.2z"/>
			</g>
		</g>
	</g>
	<g>
		<g transform="translate(108.440138, 196.481032)">
			<g>
				<path d="M-10.9-94.8v12.7h5.2v-12.7l18.8-31.6H7.5L-8.3-99.1l-15.8-27.4h-5.6L-10.9-94.8z"/>
			</g>
		</g>
	</g>
	<g>
		<g transform="translate(123.895462, 196.481032)">
			<g>
				<path d="M1.8-82.2H7v-16.5h22.3c7.7,0,12-3.9,12-10.6v-6.6c0-6.6-4.4-10.6-11.8-10.6H1.8V-82.2z M7-102.6v-19.9h20.7
					c5.2,0,8.4,2.9,8.4,7.7v4.7c0,4.8-3.2,7.6-8.5,7.6H7z"/>
			</g>
		</g>
	</g>
	<g>
		<g transform="translate(141.443202, 196.481032)">
			<g>
				<path d="M30.9-82.2h39.6v-4H36.1v-16.2h28v-3.9h-28v-16.3h34.4v-3.9H30.9V-82.2z"/>
			</g>
		</g>
	</g>
	<g>
		<g transform="translate(159.014723, 196.481032)">
			<g>
				<path d="M60.1-82.2h5.2v-16.6h18.4c3.5,0,6.7,2,8.2,5.3l5.3,11.3h5.9L97-95c-1.1-2.3-2.8-4.2-5.1-5.4c4.9-1.2,7.7-4.6,7.7-9.9
					v-5.7c0-6.6-4.4-10.6-11.8-10.6H60.1V-82.2z M65.3-102.7v-19.8H86c5.2,0,8.4,2.9,8.4,7.6v4.6c0,4.7-3.2,7.6-8.5,7.6H65.3z"/>
			</g>
		</g>
	</g>
	<g>
		<g transform="translate(177.275784, 196.481032)">
			<g>
				<path d="M90.5-82.2h5.2v-38.2l31.7,38.2h5.8v-44.3h-5.3v38.1l-31.6-38.1h-5.8V-82.2z"/>
			</g>
		</g>
	</g>
	<g>
		<g transform="translate(197.078846, 196.481032)">
		</g>
	</g>
	<g>
		<g transform="translate(203.736526, 196.481032)">
		</g>
	</g>
	<g>
		<g transform="translate(210.394206, 196.481032)">
		</g>
	</g>
	<g>
		<g transform="translate(217.051886, 196.481032)">
		</g>
	</g>
	<g>
		<g transform="translate(223.703848, 196.481032)">
			<g>
				<path d="M181.3-82.2h8.4l19.4-44.3h-5.5l-18,41.3l-18.1-41.3H162L181.3-82.2z"/>
			</g>
		</g>
	</g>
	<g>
		<g transform="translate(240.942483, 196.481032)">
			<g>
				<path d="M232.3-82.2h5.5l-19.4-44.3H210l-19.4,44.3h5.5l5.1-11.6h26L232.3-82.2z M202.9-97.7l11.3-25.8l11.3,25.8H202.9z"/>
			</g>
		</g>
	</g>
	<g>
		<g transform="translate(258.180408, 196.481032)">
		</g>
	</g>
	<g>
		<g transform="translate(88.617905, 214.816421)">
			<g>
				<path d="M-31.2-51.7h1l-15.4-32.1h-1.4l-15.4,32.1h1l4.4-9.2h21.3L-31.2-51.7z M-56.5-61.8l10.2-21.3L-36-61.8H-56.5z"/>
			</g>
		</g>
	</g>
	<g>
		<g transform="translate(100.323951, 214.816421)">
			<g>
				<path d="M-28.9-51.2c6.8,0,10.8-2.8,10.8-7.6v-0.6H-19v0.6c0,4.3-3.6,6.7-9.9,6.7c-6.2,0-9.8-2.4-9.8-6.7v-3.8h20.6v-4.8
					c0-4.8-3.9-7.6-10.8-7.6c-6.8,0-10.8,2.8-10.8,7.6v8.6C-39.7-54-35.7-51.2-28.9-51.2z M-38.7-63.6v-3.8c0-4.3,3.6-6.7,9.8-6.7
					c6.2,0,9.9,2.4,9.9,6.7v3.8H-38.7z"/>
			</g>
		</g>
	</g>
	<g>
		<g transform="translate(110.480674, 214.816421)">
			<g>
				<path d="M-21.4-51.7h0.9v-11.5c0-6.8,4.3-11,11.2-11h0v-0.9h0c-5.9,0-9.9,3.1-11.2,8.2v-7.8h-0.9V-51.7z"/>
			</g>
		</g>
	</g>
	<g>
		<g transform="translate(117.280512, 214.816421)">
			<g>
				<path d="M-0.7-51.2c6.8,0,10.8-2.8,10.8-7.6v-8.7c0-4.8-3.9-7.6-10.8-7.6c-6.8,0-10.8,2.8-10.8,7.6v8.6
					C-11.5-54-7.5-51.2-0.7-51.2z M-10.5-58.9v-8.6c0-4.3,3.6-6.7,9.8-6.7c6.2,0,9.9,2.4,9.9,6.6v8.7c0,4.3-3.6,6.7-9.9,6.7
					C-6.9-52.2-10.5-54.6-10.5-58.9z"/>
			</g>
		</g>
	</g>
	<g>
		<g transform="translate(127.437235, 214.816421)">
			<g>
				<path d="M15-51.2c6.1,0,9.6-2.4,9.6-6.5v-0.8c0-2.5-1.6-4.2-4.6-4.8L9.3-65.2c-2.1-0.4-3-1.4-3-3.3v-0.1c0-3.5,3.2-5.5,8.7-5.5
					c5.6,0,8.7,2,8.7,5.5v0.9h0.9v-0.9c0-4.1-3.6-6.5-9.6-6.5s-9.6,2.4-9.6,6.5v0.1c0,2.3,1.2,3.7,3.7,4.2l10.8,1.9
					c2.5,0.4,3.8,1.8,3.8,3.9v0.8c0,3.5-3.2,5.5-8.7,5.5c-5.5,0-8.7-2-8.7-5.5v-0.9H5.4v0.9C5.4-53.6,9-51.2,15-51.2z"/>
			</g>
		</g>
	</g>
	<g>
		<g transform="translate(136.733213, 214.816421)">
			<g>
				<path d="M33.2-51.2c6.7,0,10.5-2.8,10.5-7.6v-8.6c0-4.8-3.9-7.6-10.5-7.6c-5.3,0-8.9,1.8-10.1,4.9v-4.5h-0.9v32.1h0.9v-13.7
					C24.3-53,27.9-51.2,33.2-51.2z M23.1-58.9v-8.6c0-4.3,3.6-6.7,9.9-6.7c6.3,0,9.8,2.4,9.8,6.7v8.6c0,4.3-3.6,6.7-9.8,6.7
					C26.8-52.2,23.1-54.6,23.1-58.9z"/>
			</g>
		</g>
	</g>
	<g>
		<g transform="translate(147.406372, 214.816421)">
			<g>
				<path d="M62.4-51.7h2.3v-0.9h-2.3c-1.5,0-2.8-1.2-2.8-2.8v-12.4c0-4.6-3.8-7.3-10.3-7.3S39-72.4,39-67.8v1.4H40v-1.4
					c0-4,3.4-6.4,9.4-6.4c6,0,9.4,2.3,9.4,6.4c0,2.3-1.5,3.7-4.1,3.7H43.3c-3.1,0-5.1,2-5.1,5v1.9c0,3.9,3.1,5.9,9,5.9
					c5.5,0,10.2-3,11.6-7v2.9C58.8-53.4,60.4-51.7,62.4-51.7z M39-57.2v-1.9c0-2.5,1.6-4.1,4.2-4.1h11.4c2,0,3.4-0.9,4.1-2.4v4.7
					c0,4.8-5.2,8.7-11.5,8.7C41.8-52.2,39-53.8,39-57.2z"/>
			</g>
		</g>
	</g>
	<g>
		<g transform="translate(158.251686, 214.816421)">
			<g>
				<path d="M67.4-51.2c6.8,0,10.8-2.8,10.8-7.6v-0.6h-0.9v0.6c0,4.3-3.6,6.7-9.9,6.7c-6.2,0-9.8-2.4-9.8-6.7v-8.6
					c0-4.3,3.6-6.7,9.8-6.7c6.2,0,9.9,2.4,9.9,6.7v0.6h0.9v-0.6c0-4.8-3.9-7.6-10.8-7.6c-6.8,0-10.8,2.8-10.8,7.6v8.6
					C56.6-54,60.6-51.2,67.4-51.2z"/>
			</g>
		</g>
	</g>
	<g>
		<g transform="translate(168.408408, 214.816421)">
			<g>
				<path d="M84.3-51.2c6.8,0,10.8-2.8,10.8-7.6v-0.6h-0.9v0.6c0,4.3-3.6,6.7-9.9,6.7c-6.2,0-9.8-2.4-9.8-6.7v-3.8H95v-4.8
					c0-4.8-3.9-7.6-10.8-7.6c-6.8,0-10.8,2.8-10.8,7.6v8.6C73.5-54,77.4-51.2,84.3-51.2z M74.4-63.6v-3.8c0-4.3,3.6-6.7,9.8-6.7
					c6.2,0,9.9,2.4,9.9,6.7v3.8H74.4z"/>
			</g>
		</g>
	</g>
	<g>
		<g transform="translate(178.559305, 214.816421)">
		</g>
	</g>
</g>
</svg>
