<?xml version="1.0" encoding="iso-8859-1"?>
<!-- Uploaded to: SVG Repo, www.svgrepo.com, Generator: SVG Repo Mixer Tools -->
<!DOCTYPE svg PUBLIC "-//W3C//DTD SVG 1.1//EN" "http://www.w3.org/Graphics/SVG/1.1/DTD/svg11.dtd">
<svg fill="#000000" version="1.1" id="Capa_1" xmlns="http://www.w3.org/2000/svg" xmlns:xlink="http://www.w3.org/1999/xlink" 
	 width="800px" height="800px" viewBox="0 0 54.316 54.316"
	 xml:space="preserve">
<g>
	<g>
		<path d="M54.316,47.769V6.548c0-0.552-0.447-1-1-1H1c-0.553,0-1,0.448-1,1v41.221c0,0.551,0.447,1,1,1h52.314
			C53.867,48.769,54.316,48.319,54.316,47.769z M49.277,14.853v28.768H5.036V14.853H49.277z"/>
		<path d="M23.003,30.278c0.803,0,1.584-0.131,2.326-0.373l9.689,9.687c0.188,0.188,0.44,0.293,0.706,0.293
			c0.267,0,0.521-0.104,0.707-0.293l3.365-3.368c0.392-0.391,0.392-1.023,0-1.414l-9.69-9.69c0.842-2.593,0.243-5.556-1.812-7.612
			c-1.409-1.407-3.282-2.182-5.275-2.182c-1.034,0-2.038,0.208-2.984,0.618c-0.304,0.131-0.522,0.405-0.585,0.73
			c-0.062,0.326,0.041,0.661,0.275,0.895l3.547,3.547l-1.952,1.953l-3.546-3.548c-0.234-0.234-0.569-0.336-0.895-0.275
			c-0.325,0.062-0.599,0.281-0.73,0.585c-1.228,2.837-0.613,6.079,1.565,8.259C19.126,29.501,21.005,30.278,23.003,30.278z"/>
	</g>
</g>
</svg>