<?xml version="1.0" encoding="iso-8859-1"?>
<!-- Uploaded to: SVG Repo, www.svgrepo.com, Generator: SVG Repo Mixer Tools -->
<svg height="800px" width="800px" version="1.1" id="Capa_1" xmlns="http://www.w3.org/2000/svg" xmlns:xlink="http://www.w3.org/1999/xlink" 
	 viewBox="0 0 223.888 223.888" xml:space="preserve">
<g>
	<g>
		<path style="fill:#010002;" d="M183.019,166.936c1.436,0.555,2.823,1.088,4.155,1.599c2.785,0.941,5.134,2.012,7.31,2.986
			c2.176,0.919,4.204,1.822,5.776,2.747c3.22,1.686,5.183,2.507,5.183,2.507s-1.017-1.871-3.019-4.906
			c-0.506-0.756-1.066-1.588-1.67-2.497c-0.691-0.876-1.534-1.741-2.404-2.72c-1.751-1.958-3.796-4.248-6.326-6.184
			c-1.267-1.017-2.584-2.078-3.949-3.171c-1.485-0.93-3.013-1.893-4.591-2.883c-3.133-2.099-6.842-3.486-10.601-5.189
			c-3.9-1.224-7.952-2.72-12.254-3.307c-4.253-0.968-8.686-1.039-13.097-1.305c-4.411,0.261-8.844,0.326-13.097,1.294
			c-4.308,0.571-8.354,2.089-12.26,3.296c-3.764,1.702-7.468,3.089-10.606,5.183c-1.577,0.99-3.111,1.953-4.591,2.883
			c-1.365,1.099-2.681,2.159-3.949,3.176c-2.551,1.958-4.531,4.199-6.255,6.135c-0.859,0.968-1.697,1.828-2.388,2.703
			c-0.631,0.93-1.213,1.789-1.74,2.562c-2.061,3.089-3.03,4.928-3.03,4.928s2.012-0.854,5.167-2.486
			c1.528-0.876,3.503-1.741,5.727-2.703c2.203-0.99,4.623-2.11,7.386-3.03c1.333-0.511,2.72-1.044,4.155-1.599
			c1.463-0.441,2.981-0.892,4.536-1.354c0.321-0.12,0.685-0.18,1.012-0.283c-1.43,3.639-2.241,7.582-2.241,11.721
			c0,17.737,14.43,32.167,32.167,32.167s32.167-14.43,32.167-32.167c0-4.15-0.816-8.104-2.252-11.748
			c0.337,0.109,0.707,0.169,1.033,0.288C180.038,166.049,181.556,166.501,183.019,166.936z M147.535,192.891
			c-8.735,0-15.849-7.109-15.849-15.849s7.114-15.849,15.849-15.849s15.849,7.109,15.849,15.849S156.27,192.891,147.535,192.891z"/>
		<path style="fill:#010002;" d="M38.775,149.427c3.079-4.003,6.266-8.251,9.257-12.309l9.04-12.765
			c3.051-4.047,6.065-7.767,9.045-11.846c5.755,9.654,11.58,17.971,17.514,27.054c0.756,1.148,1.773,3.361,2.981,4.177
			c4.922,3.329,11.612,1.833,14.941-3.089l0.092-0.538c8.55-12.651,16.888-26.461,25.085-39.433
			c4.34,6.277,8.713,12.461,13.201,18.46l0.62,1.632c0.653,0.865,1.49,1.621,2.486,2.203c4.03,2.35,9.197,0.99,11.547-3.04
			l12.118-20.766l11.683-21.055c3.187-5.956,6.337-11.95,9.453-17.954c-2.04-1.251-3.938-2.698-5.597-4.411
			c-4.417,5.336-8.8,10.655-13.146,16.056l-14.8,18.814l-6.211,8.186c-4.286-6.978-8.626-13.875-13.016-20.93
			c-0.696-1.11-1.648-1.648-2.785-2.442c-4.558-3.176-10.824-1.768-14,2.785l-0.305,1.012c-8.67,12.439-17.231,23.094-25.602,36.61
			c-5.749-8.648-11.574-16.1-17.443-24.405l-0.413-1.74c-0.734-1.028-1.681-1.925-2.823-2.622
			c-4.536-2.763-10.448-1.327-13.211,3.204c-5.249,8.61-10.465,17.236-15.501,25.982l-7.636,13.07
			c-2.567,4.34-4.939,8.811-7.419,13.211c-4.971,8.79-9.741,17.715-14.43,26.695c-4.688,9.007-9.241,18.074-13.5,27.337
			c6.859-7.544,13.418-15.442,19.858-23.257C26.287,165.478,32.629,157.439,38.775,149.427z"/>
		<path style="fill:#010002;" d="M223.888,35.898c0-11.716-9.497-21.218-21.218-21.218s-21.218,9.497-21.218,21.218
			c0,5.472,2.132,10.416,5.537,14.18c1.24,1.371,2.616,2.594,4.172,3.606c3.318,2.154,7.261,3.432,11.509,3.432
			C214.386,57.116,223.888,47.614,223.888,35.898z"/>
	</g>
</g>
</svg>